<svg width="426" height="171" viewBox="0 0 426 171" fill="none" xmlns="http://www.w3.org/2000/svg">
<g clip-path="url(#clip0_9555_6402)">
<g filter="url(#filter0_i_9555_6402)">
<path d="M277 30.2436V97.7124C277.004 101.688 276.224 105.626 274.705 109.301C273.186 112.975 270.958 116.314 268.148 119.127C265.338 121.94 262.001 124.171 258.328 125.694C254.655 127.216 250.718 128 246.742 128H179.273C171.248 127.996 163.552 124.807 157.876 119.134C152.2 113.461 149.008 105.767 149 97.7417V30.2729C148.996 26.2976 149.776 22.3605 151.295 18.6868C152.814 15.0132 155.043 11.675 157.853 8.86333C160.663 6.05165 164 3.82161 167.673 2.30075C171.346 0.779896 175.283 -0.00192622 179.258 3.56376e-06H246.727C250.701 -0.00192302 254.636 0.778823 258.308 2.29766C261.979 3.81651 265.316 6.0437 268.127 8.85208C270.938 11.6605 273.169 14.995 274.691 18.6654C276.214 22.3358 276.998 26.27 277 30.2436Z" fill="#EEEEEE"/>
</g>
<g style="mix-blend-mode:soft-light" opacity="0.4">
<path d="M213.303 49.895L209.812 68.2436L213.303 71.0304V49.895Z" fill="black"/>
</g>
<g style="mix-blend-mode:soft-light" filter="url(#filter1_f_9555_6402)">
<path d="M186.888 66H176.112C171.632 66 168 69.5817 168 74C168 78.4183 171.632 82 176.112 82H186.888C191.368 82 195 78.4183 195 74C195 69.5817 191.368 66 186.888 66Z" fill="#C140A3"/>
</g>
<g style="mix-blend-mode:soft-light" filter="url(#filter2_f_9555_6402)">
<path d="M248.904 66H238.096C233.625 66 230 69.5785 230 73.9929V74.0071C230 78.4215 233.625 82 238.096 82H248.904C253.375 82 257 78.4215 257 74.0071V73.9929C257 69.5785 253.375 66 248.904 66Z" fill="#C140A3"/>
</g>
<path d="M213.542 83H212.789C203.086 83.218 191.994 88.2904 189.085 99.1473C189.018 99.3278 188.99 99.52 189.003 99.7116C189.016 99.9032 189.07 100.09 189.16 100.26C189.251 100.43 189.377 100.58 189.529 100.7C189.682 100.819 189.858 100.906 190.047 100.955C190.236 101.004 190.433 101.013 190.626 100.983C190.818 100.952 191.002 100.882 191.166 100.778C191.33 100.673 191.47 100.537 191.577 100.376C191.684 100.215 191.755 100.034 191.787 99.8449C194.342 90.3833 204.208 85.9504 212.848 85.7615C221.089 85.6016 231.886 89.6023 235.312 100.328C235.492 100.582 235.749 100.772 236.046 100.872C236.343 100.972 236.665 100.976 236.964 100.884C237.264 100.791 237.526 100.607 237.712 100.358C237.898 100.11 237.999 99.809 238 99.5C234.854 89.6895 225.299 83 213.542 83Z" fill="black"/>
<g clip-path="url(#clip1_9555_6402)">
<path d="M256 51.0396C256 43.8381 250.18 38 243 38C235.82 38 230 43.8381 230 51.0396V54.9604C230 62.1619 235.82 68 243 68C250.18 68 256 62.1619 256 54.9604V51.0396Z" fill="black"/>
<path d="M238.786 47.5337C240.049 47.5337 241.074 46.5093 241.074 45.2456C241.074 43.9819 240.049 42.9575 238.786 42.9575C237.522 42.9575 236.498 43.9819 236.498 45.2456C236.498 46.5093 237.522 47.5337 238.786 47.5337Z" fill="white"/>
<path opacity="0.1" d="M243.024 56.3485C245.965 56.3485 248.349 53.9648 248.349 51.0244C248.349 48.0839 245.965 45.7002 243.024 45.7002C240.084 45.7002 237.7 48.0839 237.7 51.0244C237.7 53.9648 240.084 56.3485 243.024 56.3485Z" fill="white"/>
<path d="M195 51.0396C195 43.8381 189.18 38 182 38C174.82 38 169 43.8381 169 51.0396V54.9604C169 62.162 174.82 68 182 68C189.18 68 195 62.162 195 54.9604V51.0396Z" fill="black"/>
<path d="M177.786 47.5337C179.049 47.5337 180.074 46.5093 180.074 45.2456C180.074 43.9819 179.049 42.9575 177.786 42.9575C176.522 42.9575 175.498 43.9819 175.498 45.2456C175.498 46.5093 176.522 47.5337 177.786 47.5337Z" fill="white"/>
<path opacity="0.1" d="M182.024 56.3485C184.965 56.3485 187.349 53.9648 187.349 51.0244C187.349 48.0839 184.965 45.7002 182.024 45.7002C179.084 45.7002 176.7 48.0839 176.7 51.0244C176.7 53.9648 179.084 56.3485 182.024 56.3485Z" fill="white"/>
</g>
<path d="M10.0703 155.625V167H8.55469L2.82812 158.227V167H1.32031V155.625H2.82812L8.57812 164.422V155.625H10.0703ZM16.0312 167.156C15.4427 167.156 14.9089 167.057 14.4297 166.859C13.9557 166.656 13.5469 166.372 13.2031 166.008C12.8646 165.643 12.6042 165.211 12.4219 164.711C12.2396 164.211 12.1484 163.664 12.1484 163.07V162.742C12.1484 162.055 12.25 161.443 12.4531 160.906C12.6562 160.365 12.9323 159.906 13.2812 159.531C13.6302 159.156 14.026 158.872 14.4688 158.68C14.9115 158.487 15.3698 158.391 15.8438 158.391C16.4479 158.391 16.9688 158.495 17.4062 158.703C17.849 158.911 18.2109 159.203 18.4922 159.578C18.7734 159.948 18.9818 160.385 19.1172 160.891C19.2526 161.391 19.3203 161.938 19.3203 162.531V163.18H13.0078V162H17.875V161.891C17.8542 161.516 17.776 161.151 17.6406 160.797C17.5104 160.443 17.3021 160.151 17.0156 159.922C16.7292 159.693 16.3385 159.578 15.8438 159.578C15.5156 159.578 15.2135 159.648 14.9375 159.789C14.6615 159.924 14.4245 160.128 14.2266 160.398C14.0286 160.669 13.875 161 13.7656 161.391C13.6562 161.781 13.6016 162.232 13.6016 162.742V163.07C13.6016 163.471 13.6562 163.849 13.7656 164.203C13.8802 164.552 14.0443 164.859 14.2578 165.125C14.4766 165.391 14.7396 165.599 15.0469 165.75C15.3594 165.901 15.7135 165.977 16.1094 165.977C16.6198 165.977 17.0521 165.872 17.4062 165.664C17.7604 165.456 18.0703 165.177 18.3359 164.828L19.2109 165.523C19.0286 165.799 18.7969 166.062 18.5156 166.312C18.2344 166.562 17.888 166.766 17.4766 166.922C17.0703 167.078 16.5885 167.156 16.0312 167.156ZM22.4531 160.352V167H21.0078V158.547H22.375L22.4531 160.352ZM22.1094 162.453L21.5078 162.43C21.513 161.852 21.599 161.318 21.7656 160.828C21.9323 160.333 22.1667 159.904 22.4688 159.539C22.7708 159.174 23.1302 158.893 23.5469 158.695C23.9688 158.492 24.4349 158.391 24.9453 158.391C25.362 158.391 25.737 158.448 26.0703 158.562C26.4036 158.672 26.6875 158.849 26.9219 159.094C27.1615 159.339 27.3438 159.656 27.4688 160.047C27.5938 160.432 27.6562 160.904 27.6562 161.461V167H26.2031V161.445C26.2031 161.003 26.138 160.648 26.0078 160.383C25.8776 160.112 25.6875 159.917 25.4375 159.797C25.1875 159.672 24.8802 159.609 24.5156 159.609C24.1562 159.609 23.8281 159.685 23.5312 159.836C23.2396 159.987 22.987 160.195 22.7734 160.461C22.5651 160.727 22.401 161.031 22.2812 161.375C22.1667 161.714 22.1094 162.073 22.1094 162.453ZM31.2969 155V167H29.8516V155H31.2969ZM30.9531 162.453L30.3516 162.43C30.3568 161.852 30.4427 161.318 30.6094 160.828C30.776 160.333 31.0104 159.904 31.3125 159.539C31.6146 159.174 31.974 158.893 32.3906 158.695C32.8125 158.492 33.2786 158.391 33.7891 158.391C34.2057 158.391 34.5807 158.448 34.9141 158.562C35.2474 158.672 35.5312 158.849 35.7656 159.094C36.0052 159.339 36.1875 159.656 36.3125 160.047C36.4375 160.432 36.5 160.904 36.5 161.461V167H35.0469V161.445C35.0469 161.003 34.9818 160.648 34.8516 160.383C34.7214 160.112 34.5312 159.917 34.2812 159.797C34.0312 159.672 33.724 159.609 33.3594 159.609C33 159.609 32.6719 159.685 32.375 159.836C32.0833 159.987 31.8307 160.195 31.6172 160.461C31.4089 160.727 31.2448 161.031 31.125 161.375C31.0104 161.714 30.9531 162.073 30.9531 162.453ZM43.8359 165.047V158.547H45.2891V167H43.9062L43.8359 165.047ZM44.1094 163.266L44.7109 163.25C44.7109 163.812 44.651 164.333 44.5312 164.812C44.4167 165.286 44.2292 165.698 43.9688 166.047C43.7083 166.396 43.3672 166.669 42.9453 166.867C42.5234 167.06 42.0104 167.156 41.4062 167.156C40.9948 167.156 40.6172 167.096 40.2734 166.977C39.9349 166.857 39.6432 166.672 39.3984 166.422C39.1536 166.172 38.9635 165.846 38.8281 165.445C38.6979 165.044 38.6328 164.562 38.6328 164V158.547H40.0781V164.016C40.0781 164.396 40.1198 164.711 40.2031 164.961C40.2917 165.206 40.4089 165.401 40.5547 165.547C40.7057 165.688 40.8724 165.786 41.0547 165.844C41.2422 165.901 41.4349 165.93 41.6328 165.93C42.2474 165.93 42.7344 165.812 43.0938 165.578C43.4531 165.339 43.7109 165.018 43.8672 164.617C44.0286 164.211 44.1094 163.76 44.1094 163.266ZM48.9297 160.227V167H47.4766V158.547H48.8516L48.9297 160.227ZM48.6328 162.453L47.9609 162.43C47.9661 161.852 48.0417 161.318 48.1875 160.828C48.3333 160.333 48.5495 159.904 48.8359 159.539C49.1224 159.174 49.4792 158.893 49.9062 158.695C50.3333 158.492 50.8281 158.391 51.3906 158.391C51.7865 158.391 52.151 158.448 52.4844 158.562C52.8177 158.672 53.1068 158.846 53.3516 159.086C53.5964 159.326 53.7865 159.633 53.9219 160.008C54.0573 160.383 54.125 160.836 54.125 161.367V167H52.6797V161.438C52.6797 160.995 52.6042 160.641 52.4531 160.375C52.3073 160.109 52.099 159.917 51.8281 159.797C51.5573 159.672 51.2396 159.609 50.875 159.609C50.4479 159.609 50.0911 159.685 49.8047 159.836C49.5182 159.987 49.2891 160.195 49.1172 160.461C48.9453 160.727 48.8203 161.031 48.7422 161.375C48.6693 161.714 48.6328 162.073 48.6328 162.453ZM54.1094 161.656L53.1406 161.953C53.1458 161.49 53.2214 161.044 53.3672 160.617C53.5182 160.19 53.7344 159.81 54.0156 159.477C54.3021 159.143 54.6536 158.88 55.0703 158.688C55.487 158.49 55.9635 158.391 56.5 158.391C56.9531 158.391 57.3542 158.451 57.7031 158.57C58.0573 158.69 58.3542 158.875 58.5938 159.125C58.8385 159.37 59.0234 159.685 59.1484 160.07C59.2734 160.456 59.3359 160.914 59.3359 161.445V167H57.8828V161.43C57.8828 160.956 57.8073 160.589 57.6562 160.328C57.5104 160.062 57.3021 159.878 57.0312 159.773C56.7656 159.664 56.4479 159.609 56.0781 159.609C55.7604 159.609 55.4792 159.664 55.2344 159.773C54.9896 159.883 54.7839 160.034 54.6172 160.227C54.4505 160.414 54.3229 160.63 54.2344 160.875C54.151 161.12 54.1094 161.38 54.1094 161.656ZM66.5078 165.555V161.203C66.5078 160.87 66.4401 160.581 66.3047 160.336C66.1745 160.086 65.9766 159.893 65.7109 159.758C65.4453 159.622 65.1172 159.555 64.7266 159.555C64.362 159.555 64.0417 159.617 63.7656 159.742C63.4948 159.867 63.2812 160.031 63.125 160.234C62.974 160.438 62.8984 160.656 62.8984 160.891H61.4531C61.4531 160.589 61.5312 160.289 61.6875 159.992C61.8438 159.695 62.0677 159.427 62.3594 159.188C62.6562 158.943 63.0104 158.75 63.4219 158.609C63.8385 158.464 64.3021 158.391 64.8125 158.391C65.4271 158.391 65.9688 158.495 66.4375 158.703C66.9115 158.911 67.2812 159.227 67.5469 159.648C67.8177 160.065 67.9531 160.589 67.9531 161.219V165.156C67.9531 165.438 67.9766 165.737 68.0234 166.055C68.0755 166.372 68.151 166.646 68.25 166.875V167H66.7422C66.6693 166.833 66.612 166.612 66.5703 166.336C66.5286 166.055 66.5078 165.794 66.5078 165.555ZM66.7578 161.875L66.7734 162.891H65.3125C64.901 162.891 64.5339 162.924 64.2109 162.992C63.888 163.055 63.6172 163.151 63.3984 163.281C63.1797 163.411 63.013 163.576 62.8984 163.773C62.7839 163.966 62.7266 164.193 62.7266 164.453C62.7266 164.719 62.7865 164.961 62.9062 165.18C63.026 165.398 63.2057 165.573 63.4453 165.703C63.6901 165.828 63.9896 165.891 64.3438 165.891C64.7865 165.891 65.1771 165.797 65.5156 165.609C65.8542 165.422 66.1224 165.193 66.3203 164.922C66.5234 164.651 66.6328 164.388 66.6484 164.133L67.2656 164.828C67.2292 165.047 67.1302 165.289 66.9688 165.555C66.8073 165.82 66.5911 166.076 66.3203 166.32C66.0547 166.56 65.737 166.76 65.3672 166.922C65.0026 167.078 64.5911 167.156 64.1328 167.156C63.5599 167.156 63.0573 167.044 62.625 166.82C62.1979 166.596 61.8646 166.297 61.625 165.922C61.3906 165.542 61.2734 165.117 61.2734 164.648C61.2734 164.195 61.362 163.797 61.5391 163.453C61.7161 163.104 61.9714 162.815 62.3047 162.586C62.638 162.352 63.0391 162.174 63.5078 162.055C63.9766 161.935 64.5 161.875 65.0781 161.875H66.7578ZM79.1172 164.758C79.1172 164.549 79.0703 164.357 78.9766 164.18C78.888 163.997 78.7031 163.833 78.4219 163.688C78.1458 163.536 77.7292 163.406 77.1719 163.297C76.7031 163.198 76.2786 163.081 75.8984 162.945C75.5234 162.81 75.2031 162.646 74.9375 162.453C74.6771 162.26 74.4766 162.034 74.3359 161.773C74.1953 161.513 74.125 161.208 74.125 160.859C74.125 160.526 74.1979 160.211 74.3438 159.914C74.4948 159.617 74.7057 159.354 74.9766 159.125C75.2526 158.896 75.5833 158.716 75.9688 158.586C76.3542 158.456 76.7839 158.391 77.2578 158.391C77.9349 158.391 78.513 158.51 78.9922 158.75C79.4714 158.99 79.8385 159.31 80.0938 159.711C80.349 160.107 80.4766 160.547 80.4766 161.031H79.0312C79.0312 160.797 78.9609 160.57 78.8203 160.352C78.6849 160.128 78.4844 159.943 78.2188 159.797C77.9583 159.651 77.638 159.578 77.2578 159.578C76.8568 159.578 76.5312 159.641 76.2812 159.766C76.0365 159.885 75.8568 160.039 75.7422 160.227C75.6328 160.414 75.5781 160.612 75.5781 160.82C75.5781 160.977 75.6042 161.117 75.6562 161.242C75.7135 161.362 75.8125 161.474 75.9531 161.578C76.0938 161.677 76.2917 161.771 76.5469 161.859C76.8021 161.948 77.1276 162.036 77.5234 162.125C78.2161 162.281 78.7865 162.469 79.2344 162.688C79.6823 162.906 80.0156 163.174 80.2344 163.492C80.4531 163.81 80.5625 164.195 80.5625 164.648C80.5625 165.018 80.4844 165.357 80.3281 165.664C80.1771 165.971 79.9557 166.237 79.6641 166.461C79.3776 166.68 79.0339 166.852 78.6328 166.977C78.237 167.096 77.7917 167.156 77.2969 167.156C76.5521 167.156 75.9219 167.023 75.4062 166.758C74.8906 166.492 74.5 166.148 74.2344 165.727C73.9688 165.305 73.8359 164.859 73.8359 164.391H75.2891C75.3099 164.786 75.4245 165.102 75.6328 165.336C75.8411 165.565 76.0964 165.729 76.3984 165.828C76.7005 165.922 77 165.969 77.2969 165.969C77.6927 165.969 78.0234 165.917 78.2891 165.812C78.5599 165.708 78.7656 165.565 78.9062 165.383C79.0469 165.201 79.1172 164.992 79.1172 164.758ZM87.7812 170.25V160.172L87.9062 158.547H89.2344V170.25H87.7812ZM82.1016 162.867V162.703C82.1016 162.057 82.1771 161.471 82.3281 160.945C82.4792 160.414 82.7005 159.958 82.9922 159.578C83.2839 159.198 83.6354 158.906 84.0469 158.703C84.4635 158.495 84.9375 158.391 85.4688 158.391C86 158.391 86.4661 158.484 86.8672 158.672C87.2734 158.854 87.6172 159.122 87.8984 159.477C88.1849 159.826 88.4115 160.247 88.5781 160.742C88.7448 161.237 88.8594 161.797 88.9219 162.422V163.141C88.8646 163.76 88.7526 164.318 88.5859 164.812C88.4193 165.307 88.1927 165.729 87.9062 166.078C87.625 166.427 87.2786 166.695 86.8672 166.883C86.4609 167.065 85.9896 167.156 85.4531 167.156C84.9323 167.156 84.4635 167.049 84.0469 166.836C83.6354 166.622 83.2839 166.323 82.9922 165.938C82.7057 165.552 82.4844 165.099 82.3281 164.578C82.1771 164.052 82.1016 163.482 82.1016 162.867ZM83.5547 162.703V162.867C83.5547 163.289 83.599 163.688 83.6875 164.062C83.776 164.432 83.9115 164.76 84.0938 165.047C84.2812 165.333 84.5156 165.56 84.7969 165.727C85.0833 165.888 85.4219 165.969 85.8125 165.969C86.2917 165.969 86.6901 165.865 87.0078 165.656C87.3307 165.448 87.5885 165.174 87.7812 164.836C87.974 164.492 88.1224 164.125 88.2266 163.734V161.852C88.1693 161.565 88.0781 161.286 87.9531 161.016C87.8333 160.745 87.6771 160.503 87.4844 160.289C87.2917 160.07 87.0573 159.898 86.7812 159.773C86.5104 159.643 86.1927 159.578 85.8281 159.578C85.4323 159.578 85.0911 159.661 84.8047 159.828C84.5182 159.995 84.2812 160.224 84.0938 160.516C83.9115 160.802 83.776 161.133 83.6875 161.508C83.599 161.883 83.5547 162.281 83.5547 162.703ZM96.7266 165.047V158.547H98.1797V167H96.7969L96.7266 165.047ZM97 163.266L97.6016 163.25C97.6016 163.812 97.5417 164.333 97.4219 164.812C97.3073 165.286 97.1198 165.698 96.8594 166.047C96.599 166.396 96.2578 166.669 95.8359 166.867C95.4141 167.06 94.901 167.156 94.2969 167.156C93.8854 167.156 93.5078 167.096 93.1641 166.977C92.8255 166.857 92.5339 166.672 92.2891 166.422C92.0443 166.172 91.8542 165.846 91.7188 165.445C91.5885 165.044 91.5234 164.562 91.5234 164V158.547H92.9688V164.016C92.9688 164.396 93.0104 164.711 93.0938 164.961C93.1823 165.206 93.2995 165.401 93.4453 165.547C93.5964 165.688 93.763 165.786 93.9453 165.844C94.1328 165.901 94.3255 165.93 94.5234 165.93C95.138 165.93 95.625 165.812 95.9844 165.578C96.3438 165.339 96.6016 165.018 96.7578 164.617C96.9193 164.211 97 163.76 97 163.266ZM105.367 165.555V161.203C105.367 160.87 105.299 160.581 105.164 160.336C105.034 160.086 104.836 159.893 104.57 159.758C104.305 159.622 103.977 159.555 103.586 159.555C103.221 159.555 102.901 159.617 102.625 159.742C102.354 159.867 102.141 160.031 101.984 160.234C101.833 160.438 101.758 160.656 101.758 160.891H100.312C100.312 160.589 100.391 160.289 100.547 159.992C100.703 159.695 100.927 159.427 101.219 159.188C101.516 158.943 101.87 158.75 102.281 158.609C102.698 158.464 103.161 158.391 103.672 158.391C104.286 158.391 104.828 158.495 105.297 158.703C105.771 158.911 106.141 159.227 106.406 159.648C106.677 160.065 106.812 160.589 106.812 161.219V165.156C106.812 165.438 106.836 165.737 106.883 166.055C106.935 166.372 107.01 166.646 107.109 166.875V167H105.602C105.529 166.833 105.471 166.612 105.43 166.336C105.388 166.055 105.367 165.794 105.367 165.555ZM105.617 161.875L105.633 162.891H104.172C103.76 162.891 103.393 162.924 103.07 162.992C102.747 163.055 102.477 163.151 102.258 163.281C102.039 163.411 101.872 163.576 101.758 163.773C101.643 163.966 101.586 164.193 101.586 164.453C101.586 164.719 101.646 164.961 101.766 165.18C101.885 165.398 102.065 165.573 102.305 165.703C102.549 165.828 102.849 165.891 103.203 165.891C103.646 165.891 104.036 165.797 104.375 165.609C104.714 165.422 104.982 165.193 105.18 164.922C105.383 164.651 105.492 164.388 105.508 164.133L106.125 164.828C106.089 165.047 105.99 165.289 105.828 165.555C105.667 165.82 105.451 166.076 105.18 166.32C104.914 166.56 104.596 166.76 104.227 166.922C103.862 167.078 103.451 167.156 102.992 167.156C102.419 167.156 101.917 167.044 101.484 166.82C101.057 166.596 100.724 166.297 100.484 165.922C100.25 165.542 100.133 165.117 100.133 164.648C100.133 164.195 100.221 163.797 100.398 163.453C100.576 163.104 100.831 162.815 101.164 162.586C101.497 162.352 101.898 162.174 102.367 162.055C102.836 161.935 103.359 161.875 103.938 161.875H105.617ZM114.414 165.359V155H115.867V167H114.539L114.414 165.359ZM108.727 162.867V162.703C108.727 162.057 108.805 161.471 108.961 160.945C109.122 160.414 109.349 159.958 109.641 159.578C109.938 159.198 110.289 158.906 110.695 158.703C111.107 158.495 111.565 158.391 112.07 158.391C112.602 158.391 113.065 158.484 113.461 158.672C113.862 158.854 114.201 159.122 114.477 159.477C114.758 159.826 114.979 160.247 115.141 160.742C115.302 161.237 115.414 161.797 115.477 162.422V163.141C115.419 163.76 115.307 164.318 115.141 164.812C114.979 165.307 114.758 165.729 114.477 166.078C114.201 166.427 113.862 166.695 113.461 166.883C113.06 167.065 112.591 167.156 112.055 167.156C111.56 167.156 111.107 167.049 110.695 166.836C110.289 166.622 109.938 166.323 109.641 165.938C109.349 165.552 109.122 165.099 108.961 164.578C108.805 164.052 108.727 163.482 108.727 162.867ZM110.18 162.703V162.867C110.18 163.289 110.221 163.685 110.305 164.055C110.393 164.424 110.529 164.75 110.711 165.031C110.893 165.312 111.125 165.534 111.406 165.695C111.688 165.852 112.023 165.93 112.414 165.93C112.893 165.93 113.286 165.828 113.594 165.625C113.906 165.422 114.156 165.154 114.344 164.82C114.531 164.487 114.677 164.125 114.781 163.734V161.852C114.719 161.565 114.628 161.289 114.508 161.023C114.393 160.753 114.242 160.513 114.055 160.305C113.872 160.091 113.646 159.922 113.375 159.797C113.109 159.672 112.794 159.609 112.43 159.609C112.034 159.609 111.693 159.693 111.406 159.859C111.125 160.021 110.893 160.245 110.711 160.531C110.529 160.812 110.393 161.141 110.305 161.516C110.221 161.885 110.18 162.281 110.18 162.703ZM125.469 165.969C125.812 165.969 126.13 165.898 126.422 165.758C126.714 165.617 126.953 165.424 127.141 165.18C127.328 164.93 127.435 164.646 127.461 164.328H128.836C128.81 164.828 128.641 165.294 128.328 165.727C128.021 166.154 127.617 166.5 127.117 166.766C126.617 167.026 126.068 167.156 125.469 167.156C124.833 167.156 124.279 167.044 123.805 166.82C123.336 166.596 122.945 166.289 122.633 165.898C122.326 165.508 122.094 165.06 121.938 164.555C121.786 164.044 121.711 163.505 121.711 162.938V162.609C121.711 162.042 121.786 161.505 121.938 161C122.094 160.49 122.326 160.039 122.633 159.648C122.945 159.258 123.336 158.951 123.805 158.727C124.279 158.503 124.833 158.391 125.469 158.391C126.13 158.391 126.708 158.526 127.203 158.797C127.698 159.062 128.086 159.427 128.367 159.891C128.654 160.349 128.81 160.87 128.836 161.453H127.461C127.435 161.104 127.336 160.789 127.164 160.508C126.997 160.227 126.768 160.003 126.477 159.836C126.19 159.664 125.854 159.578 125.469 159.578C125.026 159.578 124.654 159.667 124.352 159.844C124.055 160.016 123.818 160.25 123.641 160.547C123.469 160.839 123.344 161.164 123.266 161.523C123.193 161.878 123.156 162.24 123.156 162.609V162.938C123.156 163.307 123.193 163.672 123.266 164.031C123.339 164.391 123.461 164.716 123.633 165.008C123.81 165.299 124.047 165.534 124.344 165.711C124.646 165.883 125.021 165.969 125.469 165.969ZM135.445 165.555V161.203C135.445 160.87 135.378 160.581 135.242 160.336C135.112 160.086 134.914 159.893 134.648 159.758C134.383 159.622 134.055 159.555 133.664 159.555C133.299 159.555 132.979 159.617 132.703 159.742C132.432 159.867 132.219 160.031 132.062 160.234C131.911 160.438 131.836 160.656 131.836 160.891H130.391C130.391 160.589 130.469 160.289 130.625 159.992C130.781 159.695 131.005 159.427 131.297 159.188C131.594 158.943 131.948 158.75 132.359 158.609C132.776 158.464 133.24 158.391 133.75 158.391C134.365 158.391 134.906 158.495 135.375 158.703C135.849 158.911 136.219 159.227 136.484 159.648C136.755 160.065 136.891 160.589 136.891 161.219V165.156C136.891 165.438 136.914 165.737 136.961 166.055C137.013 166.372 137.089 166.646 137.188 166.875V167H135.68C135.607 166.833 135.549 166.612 135.508 166.336C135.466 166.055 135.445 165.794 135.445 165.555ZM135.695 161.875L135.711 162.891H134.25C133.839 162.891 133.471 162.924 133.148 162.992C132.826 163.055 132.555 163.151 132.336 163.281C132.117 163.411 131.951 163.576 131.836 163.773C131.721 163.966 131.664 164.193 131.664 164.453C131.664 164.719 131.724 164.961 131.844 165.18C131.964 165.398 132.143 165.573 132.383 165.703C132.628 165.828 132.927 165.891 133.281 165.891C133.724 165.891 134.115 165.797 134.453 165.609C134.792 165.422 135.06 165.193 135.258 164.922C135.461 164.651 135.57 164.388 135.586 164.133L136.203 164.828C136.167 165.047 136.068 165.289 135.906 165.555C135.745 165.82 135.529 166.076 135.258 166.32C134.992 166.56 134.674 166.76 134.305 166.922C133.94 167.078 133.529 167.156 133.07 167.156C132.497 167.156 131.995 167.044 131.562 166.82C131.135 166.596 130.802 166.297 130.562 165.922C130.328 165.542 130.211 165.117 130.211 164.648C130.211 164.195 130.299 163.797 130.477 163.453C130.654 163.104 130.909 162.815 131.242 162.586C131.576 162.352 131.977 162.174 132.445 162.055C132.914 161.935 133.438 161.875 134.016 161.875H135.695ZM144.492 165.359V155H145.945V167H144.617L144.492 165.359ZM138.805 162.867V162.703C138.805 162.057 138.883 161.471 139.039 160.945C139.201 160.414 139.427 159.958 139.719 159.578C140.016 159.198 140.367 158.906 140.773 158.703C141.185 158.495 141.643 158.391 142.148 158.391C142.68 158.391 143.143 158.484 143.539 158.672C143.94 158.854 144.279 159.122 144.555 159.477C144.836 159.826 145.057 160.247 145.219 160.742C145.38 161.237 145.492 161.797 145.555 162.422V163.141C145.497 163.76 145.385 164.318 145.219 164.812C145.057 165.307 144.836 165.729 144.555 166.078C144.279 166.427 143.94 166.695 143.539 166.883C143.138 167.065 142.669 167.156 142.133 167.156C141.638 167.156 141.185 167.049 140.773 166.836C140.367 166.622 140.016 166.323 139.719 165.938C139.427 165.552 139.201 165.099 139.039 164.578C138.883 164.052 138.805 163.482 138.805 162.867ZM140.258 162.703V162.867C140.258 163.289 140.299 163.685 140.383 164.055C140.471 164.424 140.607 164.75 140.789 165.031C140.971 165.312 141.203 165.534 141.484 165.695C141.766 165.852 142.102 165.93 142.492 165.93C142.971 165.93 143.365 165.828 143.672 165.625C143.984 165.422 144.234 165.154 144.422 164.82C144.609 164.487 144.755 164.125 144.859 163.734V161.852C144.797 161.565 144.706 161.289 144.586 161.023C144.471 160.753 144.32 160.513 144.133 160.305C143.951 160.091 143.724 159.922 143.453 159.797C143.188 159.672 142.872 159.609 142.508 159.609C142.112 159.609 141.771 159.693 141.484 159.859C141.203 160.021 140.971 160.245 140.789 160.531C140.607 160.812 140.471 161.141 140.383 161.516C140.299 161.885 140.258 162.281 140.258 162.703ZM153.18 165.555V161.203C153.18 160.87 153.112 160.581 152.977 160.336C152.846 160.086 152.648 159.893 152.383 159.758C152.117 159.622 151.789 159.555 151.398 159.555C151.034 159.555 150.714 159.617 150.438 159.742C150.167 159.867 149.953 160.031 149.797 160.234C149.646 160.438 149.57 160.656 149.57 160.891H148.125C148.125 160.589 148.203 160.289 148.359 159.992C148.516 159.695 148.74 159.427 149.031 159.188C149.328 158.943 149.682 158.75 150.094 158.609C150.51 158.464 150.974 158.391 151.484 158.391C152.099 158.391 152.641 158.495 153.109 158.703C153.583 158.911 153.953 159.227 154.219 159.648C154.49 160.065 154.625 160.589 154.625 161.219V165.156C154.625 165.438 154.648 165.737 154.695 166.055C154.747 166.372 154.823 166.646 154.922 166.875V167H153.414C153.341 166.833 153.284 166.612 153.242 166.336C153.201 166.055 153.18 165.794 153.18 165.555ZM153.43 161.875L153.445 162.891H151.984C151.573 162.891 151.206 162.924 150.883 162.992C150.56 163.055 150.289 163.151 150.07 163.281C149.852 163.411 149.685 163.576 149.57 163.773C149.456 163.966 149.398 164.193 149.398 164.453C149.398 164.719 149.458 164.961 149.578 165.18C149.698 165.398 149.878 165.573 150.117 165.703C150.362 165.828 150.661 165.891 151.016 165.891C151.458 165.891 151.849 165.797 152.188 165.609C152.526 165.422 152.794 165.193 152.992 164.922C153.195 164.651 153.305 164.388 153.32 164.133L153.938 164.828C153.901 165.047 153.802 165.289 153.641 165.555C153.479 165.82 153.263 166.076 152.992 166.32C152.727 166.56 152.409 166.76 152.039 166.922C151.674 167.078 151.263 167.156 150.805 167.156C150.232 167.156 149.729 167.044 149.297 166.82C148.87 166.596 148.536 166.297 148.297 165.922C148.062 165.542 147.945 165.117 147.945 164.648C147.945 164.195 148.034 163.797 148.211 163.453C148.388 163.104 148.643 162.815 148.977 162.586C149.31 162.352 149.711 162.174 150.18 162.055C150.648 161.935 151.172 161.875 151.75 161.875H153.43ZM161.82 164.758C161.82 164.549 161.773 164.357 161.68 164.18C161.591 163.997 161.406 163.833 161.125 163.688C160.849 163.536 160.432 163.406 159.875 163.297C159.406 163.198 158.982 163.081 158.602 162.945C158.227 162.81 157.906 162.646 157.641 162.453C157.38 162.26 157.18 162.034 157.039 161.773C156.898 161.513 156.828 161.208 156.828 160.859C156.828 160.526 156.901 160.211 157.047 159.914C157.198 159.617 157.409 159.354 157.68 159.125C157.956 158.896 158.286 158.716 158.672 158.586C159.057 158.456 159.487 158.391 159.961 158.391C160.638 158.391 161.216 158.51 161.695 158.75C162.174 158.99 162.542 159.31 162.797 159.711C163.052 160.107 163.18 160.547 163.18 161.031H161.734C161.734 160.797 161.664 160.57 161.523 160.352C161.388 160.128 161.188 159.943 160.922 159.797C160.661 159.651 160.341 159.578 159.961 159.578C159.56 159.578 159.234 159.641 158.984 159.766C158.74 159.885 158.56 160.039 158.445 160.227C158.336 160.414 158.281 160.612 158.281 160.82C158.281 160.977 158.307 161.117 158.359 161.242C158.417 161.362 158.516 161.474 158.656 161.578C158.797 161.677 158.995 161.771 159.25 161.859C159.505 161.948 159.831 162.036 160.227 162.125C160.919 162.281 161.49 162.469 161.938 162.688C162.385 162.906 162.719 163.174 162.938 163.492C163.156 163.81 163.266 164.195 163.266 164.648C163.266 165.018 163.188 165.357 163.031 165.664C162.88 165.971 162.659 166.237 162.367 166.461C162.081 166.68 161.737 166.852 161.336 166.977C160.94 167.096 160.495 167.156 160 167.156C159.255 167.156 158.625 167.023 158.109 166.758C157.594 166.492 157.203 166.148 156.938 165.727C156.672 165.305 156.539 164.859 156.539 164.391H157.992C158.013 164.786 158.128 165.102 158.336 165.336C158.544 165.565 158.799 165.729 159.102 165.828C159.404 165.922 159.703 165.969 160 165.969C160.396 165.969 160.727 165.917 160.992 165.812C161.263 165.708 161.469 165.565 161.609 165.383C161.75 165.201 161.82 164.992 161.82 164.758ZM168.703 158.547V159.656H164.133V158.547H168.703ZM165.68 156.492H167.125V164.906C167.125 165.193 167.169 165.409 167.258 165.555C167.346 165.701 167.461 165.797 167.602 165.844C167.742 165.891 167.893 165.914 168.055 165.914C168.174 165.914 168.299 165.904 168.43 165.883C168.565 165.857 168.667 165.836 168.734 165.82L168.742 167C168.628 167.036 168.477 167.07 168.289 167.102C168.107 167.138 167.885 167.156 167.625 167.156C167.271 167.156 166.945 167.086 166.648 166.945C166.352 166.805 166.115 166.57 165.938 166.242C165.766 165.909 165.68 165.461 165.68 164.898V156.492ZM171.844 159.875V167H170.398V158.547H171.805L171.844 159.875ZM174.484 158.5L174.477 159.844C174.357 159.818 174.242 159.802 174.133 159.797C174.029 159.786 173.909 159.781 173.773 159.781C173.44 159.781 173.146 159.833 172.891 159.938C172.635 160.042 172.419 160.188 172.242 160.375C172.065 160.562 171.924 160.786 171.82 161.047C171.721 161.302 171.656 161.583 171.625 161.891L171.219 162.125C171.219 161.615 171.268 161.135 171.367 160.688C171.471 160.24 171.63 159.844 171.844 159.5C172.057 159.151 172.328 158.88 172.656 158.688C172.99 158.49 173.385 158.391 173.844 158.391C173.948 158.391 174.068 158.404 174.203 158.43C174.339 158.451 174.432 158.474 174.484 158.5ZM180.492 165.555V161.203C180.492 160.87 180.424 160.581 180.289 160.336C180.159 160.086 179.961 159.893 179.695 159.758C179.43 159.622 179.102 159.555 178.711 159.555C178.346 159.555 178.026 159.617 177.75 159.742C177.479 159.867 177.266 160.031 177.109 160.234C176.958 160.438 176.883 160.656 176.883 160.891H175.438C175.438 160.589 175.516 160.289 175.672 159.992C175.828 159.695 176.052 159.427 176.344 159.188C176.641 158.943 176.995 158.75 177.406 158.609C177.823 158.464 178.286 158.391 178.797 158.391C179.411 158.391 179.953 158.495 180.422 158.703C180.896 158.911 181.266 159.227 181.531 159.648C181.802 160.065 181.938 160.589 181.938 161.219V165.156C181.938 165.438 181.961 165.737 182.008 166.055C182.06 166.372 182.135 166.646 182.234 166.875V167H180.727C180.654 166.833 180.596 166.612 180.555 166.336C180.513 166.055 180.492 165.794 180.492 165.555ZM180.742 161.875L180.758 162.891H179.297C178.885 162.891 178.518 162.924 178.195 162.992C177.872 163.055 177.602 163.151 177.383 163.281C177.164 163.411 176.997 163.576 176.883 163.773C176.768 163.966 176.711 164.193 176.711 164.453C176.711 164.719 176.771 164.961 176.891 165.18C177.01 165.398 177.19 165.573 177.43 165.703C177.674 165.828 177.974 165.891 178.328 165.891C178.771 165.891 179.161 165.797 179.5 165.609C179.839 165.422 180.107 165.193 180.305 164.922C180.508 164.651 180.617 164.388 180.633 164.133L181.25 164.828C181.214 165.047 181.115 165.289 180.953 165.555C180.792 165.82 180.576 166.076 180.305 166.32C180.039 166.56 179.721 166.76 179.352 166.922C178.987 167.078 178.576 167.156 178.117 167.156C177.544 167.156 177.042 167.044 176.609 166.82C176.182 166.596 175.849 166.297 175.609 165.922C175.375 165.542 175.258 165.117 175.258 164.648C175.258 164.195 175.346 163.797 175.523 163.453C175.701 163.104 175.956 162.815 176.289 162.586C176.622 162.352 177.023 162.174 177.492 162.055C177.961 161.935 178.484 161.875 179.062 161.875H180.742ZM189.539 165.359V155H190.992V167H189.664L189.539 165.359ZM183.852 162.867V162.703C183.852 162.057 183.93 161.471 184.086 160.945C184.247 160.414 184.474 159.958 184.766 159.578C185.062 159.198 185.414 158.906 185.82 158.703C186.232 158.495 186.69 158.391 187.195 158.391C187.727 158.391 188.19 158.484 188.586 158.672C188.987 158.854 189.326 159.122 189.602 159.477C189.883 159.826 190.104 160.247 190.266 160.742C190.427 161.237 190.539 161.797 190.602 162.422V163.141C190.544 163.76 190.432 164.318 190.266 164.812C190.104 165.307 189.883 165.729 189.602 166.078C189.326 166.427 188.987 166.695 188.586 166.883C188.185 167.065 187.716 167.156 187.18 167.156C186.685 167.156 186.232 167.049 185.82 166.836C185.414 166.622 185.062 166.323 184.766 165.938C184.474 165.552 184.247 165.099 184.086 164.578C183.93 164.052 183.852 163.482 183.852 162.867ZM185.305 162.703V162.867C185.305 163.289 185.346 163.685 185.43 164.055C185.518 164.424 185.654 164.75 185.836 165.031C186.018 165.312 186.25 165.534 186.531 165.695C186.812 165.852 187.148 165.93 187.539 165.93C188.018 165.93 188.411 165.828 188.719 165.625C189.031 165.422 189.281 165.154 189.469 164.82C189.656 164.487 189.802 164.125 189.906 163.734V161.852C189.844 161.565 189.753 161.289 189.633 161.023C189.518 160.753 189.367 160.513 189.18 160.305C188.997 160.091 188.771 159.922 188.5 159.797C188.234 159.672 187.919 159.609 187.555 159.609C187.159 159.609 186.818 159.693 186.531 159.859C186.25 160.021 186.018 160.245 185.836 160.531C185.654 160.812 185.518 161.141 185.43 161.516C185.346 161.885 185.305 162.281 185.305 162.703ZM198.227 165.555V161.203C198.227 160.87 198.159 160.581 198.023 160.336C197.893 160.086 197.695 159.893 197.43 159.758C197.164 159.622 196.836 159.555 196.445 159.555C196.081 159.555 195.76 159.617 195.484 159.742C195.214 159.867 195 160.031 194.844 160.234C194.693 160.438 194.617 160.656 194.617 160.891H193.172C193.172 160.589 193.25 160.289 193.406 159.992C193.562 159.695 193.786 159.427 194.078 159.188C194.375 158.943 194.729 158.75 195.141 158.609C195.557 158.464 196.021 158.391 196.531 158.391C197.146 158.391 197.688 158.495 198.156 158.703C198.63 158.911 199 159.227 199.266 159.648C199.536 160.065 199.672 160.589 199.672 161.219V165.156C199.672 165.438 199.695 165.737 199.742 166.055C199.794 166.372 199.87 166.646 199.969 166.875V167H198.461C198.388 166.833 198.331 166.612 198.289 166.336C198.247 166.055 198.227 165.794 198.227 165.555ZM198.477 161.875L198.492 162.891H197.031C196.62 162.891 196.253 162.924 195.93 162.992C195.607 163.055 195.336 163.151 195.117 163.281C194.898 163.411 194.732 163.576 194.617 163.773C194.503 163.966 194.445 164.193 194.445 164.453C194.445 164.719 194.505 164.961 194.625 165.18C194.745 165.398 194.924 165.573 195.164 165.703C195.409 165.828 195.708 165.891 196.062 165.891C196.505 165.891 196.896 165.797 197.234 165.609C197.573 165.422 197.841 165.193 198.039 164.922C198.242 164.651 198.352 164.388 198.367 164.133L198.984 164.828C198.948 165.047 198.849 165.289 198.688 165.555C198.526 165.82 198.31 166.076 198.039 166.32C197.773 166.56 197.456 166.76 197.086 166.922C196.721 167.078 196.31 167.156 195.852 167.156C195.279 167.156 194.776 167.044 194.344 166.82C193.917 166.596 193.583 166.297 193.344 165.922C193.109 165.542 192.992 165.117 192.992 164.648C192.992 164.195 193.081 163.797 193.258 163.453C193.435 163.104 193.69 162.815 194.023 162.586C194.357 162.352 194.758 162.174 195.227 162.055C195.695 161.935 196.219 161.875 196.797 161.875H198.477ZM201.969 166.234C201.969 165.99 202.044 165.784 202.195 165.617C202.352 165.445 202.576 165.359 202.867 165.359C203.159 165.359 203.38 165.445 203.531 165.617C203.688 165.784 203.766 165.99 203.766 166.234C203.766 166.474 203.688 166.677 203.531 166.844C203.38 167.01 203.159 167.094 202.867 167.094C202.576 167.094 202.352 167.01 202.195 166.844C202.044 166.677 201.969 166.474 201.969 166.234ZM217.219 163.383H218.719C218.641 164.102 218.435 164.745 218.102 165.312C217.768 165.88 217.297 166.331 216.688 166.664C216.078 166.992 215.318 167.156 214.406 167.156C213.74 167.156 213.133 167.031 212.586 166.781C212.044 166.531 211.578 166.177 211.188 165.719C210.797 165.255 210.495 164.701 210.281 164.055C210.073 163.404 209.969 162.68 209.969 161.883V160.75C209.969 159.953 210.073 159.232 210.281 158.586C210.495 157.935 210.799 157.378 211.195 156.914C211.596 156.451 212.078 156.094 212.641 155.844C213.203 155.594 213.836 155.469 214.539 155.469C215.398 155.469 216.125 155.63 216.719 155.953C217.312 156.276 217.773 156.724 218.102 157.297C218.435 157.865 218.641 158.523 218.719 159.273H217.219C217.146 158.742 217.01 158.286 216.812 157.906C216.615 157.521 216.333 157.224 215.969 157.016C215.604 156.807 215.128 156.703 214.539 156.703C214.034 156.703 213.589 156.799 213.203 156.992C212.823 157.185 212.503 157.458 212.242 157.812C211.987 158.167 211.794 158.591 211.664 159.086C211.534 159.581 211.469 160.13 211.469 160.734V161.883C211.469 162.44 211.526 162.964 211.641 163.453C211.76 163.943 211.94 164.372 212.18 164.742C212.419 165.112 212.724 165.404 213.094 165.617C213.464 165.826 213.901 165.93 214.406 165.93C215.047 165.93 215.557 165.828 215.938 165.625C216.318 165.422 216.604 165.13 216.797 164.75C216.995 164.37 217.135 163.914 217.219 163.383ZM222 159.875V167H220.555V158.547H221.961L222 159.875ZM224.641 158.5L224.633 159.844C224.513 159.818 224.398 159.802 224.289 159.797C224.185 159.786 224.065 159.781 223.93 159.781C223.596 159.781 223.302 159.833 223.047 159.938C222.792 160.042 222.576 160.188 222.398 160.375C222.221 160.562 222.081 160.786 221.977 161.047C221.878 161.302 221.812 161.583 221.781 161.891L221.375 162.125C221.375 161.615 221.424 161.135 221.523 160.688C221.628 160.24 221.786 159.844 222 159.5C222.214 159.151 222.484 158.88 222.812 158.688C223.146 158.49 223.542 158.391 224 158.391C224.104 158.391 224.224 158.404 224.359 158.43C224.495 158.451 224.589 158.474 224.641 158.5ZM227.547 158.547V167H226.094V158.547H227.547ZM225.984 156.305C225.984 156.07 226.055 155.872 226.195 155.711C226.341 155.549 226.555 155.469 226.836 155.469C227.112 155.469 227.323 155.549 227.469 155.711C227.62 155.872 227.695 156.07 227.695 156.305C227.695 156.529 227.62 156.721 227.469 156.883C227.323 157.039 227.112 157.117 226.836 157.117C226.555 157.117 226.341 157.039 226.195 156.883C226.055 156.721 225.984 156.529 225.984 156.305ZM233.375 167.156C232.786 167.156 232.253 167.057 231.773 166.859C231.299 166.656 230.891 166.372 230.547 166.008C230.208 165.643 229.948 165.211 229.766 164.711C229.583 164.211 229.492 163.664 229.492 163.07V162.742C229.492 162.055 229.594 161.443 229.797 160.906C230 160.365 230.276 159.906 230.625 159.531C230.974 159.156 231.37 158.872 231.812 158.68C232.255 158.487 232.714 158.391 233.188 158.391C233.792 158.391 234.312 158.495 234.75 158.703C235.193 158.911 235.555 159.203 235.836 159.578C236.117 159.948 236.326 160.385 236.461 160.891C236.596 161.391 236.664 161.938 236.664 162.531V163.18H230.352V162H235.219V161.891C235.198 161.516 235.12 161.151 234.984 160.797C234.854 160.443 234.646 160.151 234.359 159.922C234.073 159.693 233.682 159.578 233.188 159.578C232.859 159.578 232.557 159.648 232.281 159.789C232.005 159.924 231.768 160.128 231.57 160.398C231.372 160.669 231.219 161 231.109 161.391C231 161.781 230.945 162.232 230.945 162.742V163.07C230.945 163.471 231 163.849 231.109 164.203C231.224 164.552 231.388 164.859 231.602 165.125C231.82 165.391 232.083 165.599 232.391 165.75C232.703 165.901 233.057 165.977 233.453 165.977C233.964 165.977 234.396 165.872 234.75 165.664C235.104 165.456 235.414 165.177 235.68 164.828L236.555 165.523C236.372 165.799 236.141 166.062 235.859 166.312C235.578 166.562 235.232 166.766 234.82 166.922C234.414 167.078 233.932 167.156 233.375 167.156ZM247.492 165.047V158.547H248.945V167H247.562L247.492 165.047ZM247.766 163.266L248.367 163.25C248.367 163.812 248.307 164.333 248.188 164.812C248.073 165.286 247.885 165.698 247.625 166.047C247.365 166.396 247.023 166.669 246.602 166.867C246.18 167.06 245.667 167.156 245.062 167.156C244.651 167.156 244.273 167.096 243.93 166.977C243.591 166.857 243.299 166.672 243.055 166.422C242.81 166.172 242.62 165.846 242.484 165.445C242.354 165.044 242.289 164.562 242.289 164V158.547H243.734V164.016C243.734 164.396 243.776 164.711 243.859 164.961C243.948 165.206 244.065 165.401 244.211 165.547C244.362 165.688 244.529 165.786 244.711 165.844C244.898 165.901 245.091 165.93 245.289 165.93C245.904 165.93 246.391 165.812 246.75 165.578C247.109 165.339 247.367 165.018 247.523 164.617C247.685 164.211 247.766 163.76 247.766 163.266ZM252.586 160.227V167H251.133V158.547H252.508L252.586 160.227ZM252.289 162.453L251.617 162.43C251.622 161.852 251.698 161.318 251.844 160.828C251.99 160.333 252.206 159.904 252.492 159.539C252.779 159.174 253.135 158.893 253.562 158.695C253.99 158.492 254.484 158.391 255.047 158.391C255.443 158.391 255.807 158.448 256.141 158.562C256.474 158.672 256.763 158.846 257.008 159.086C257.253 159.326 257.443 159.633 257.578 160.008C257.714 160.383 257.781 160.836 257.781 161.367V167H256.336V161.438C256.336 160.995 256.26 160.641 256.109 160.375C255.964 160.109 255.755 159.917 255.484 159.797C255.214 159.672 254.896 159.609 254.531 159.609C254.104 159.609 253.747 159.685 253.461 159.836C253.174 159.987 252.945 160.195 252.773 160.461C252.602 160.727 252.477 161.031 252.398 161.375C252.326 161.714 252.289 162.073 252.289 162.453ZM257.766 161.656L256.797 161.953C256.802 161.49 256.878 161.044 257.023 160.617C257.174 160.19 257.391 159.81 257.672 159.477C257.958 159.143 258.31 158.88 258.727 158.688C259.143 158.49 259.62 158.391 260.156 158.391C260.609 158.391 261.01 158.451 261.359 158.57C261.714 158.69 262.01 158.875 262.25 159.125C262.495 159.37 262.68 159.685 262.805 160.07C262.93 160.456 262.992 160.914 262.992 161.445V167H261.539V161.43C261.539 160.956 261.464 160.589 261.312 160.328C261.167 160.062 260.958 159.878 260.688 159.773C260.422 159.664 260.104 159.609 259.734 159.609C259.417 159.609 259.135 159.664 258.891 159.773C258.646 159.883 258.44 160.034 258.273 160.227C258.107 160.414 257.979 160.63 257.891 160.875C257.807 161.12 257.766 161.38 257.766 161.656ZM270.164 165.555V161.203C270.164 160.87 270.096 160.581 269.961 160.336C269.831 160.086 269.633 159.893 269.367 159.758C269.102 159.622 268.773 159.555 268.383 159.555C268.018 159.555 267.698 159.617 267.422 159.742C267.151 159.867 266.938 160.031 266.781 160.234C266.63 160.438 266.555 160.656 266.555 160.891H265.109C265.109 160.589 265.188 160.289 265.344 159.992C265.5 159.695 265.724 159.427 266.016 159.188C266.312 158.943 266.667 158.75 267.078 158.609C267.495 158.464 267.958 158.391 268.469 158.391C269.083 158.391 269.625 158.495 270.094 158.703C270.568 158.911 270.938 159.227 271.203 159.648C271.474 160.065 271.609 160.589 271.609 161.219V165.156C271.609 165.438 271.633 165.737 271.68 166.055C271.732 166.372 271.807 166.646 271.906 166.875V167H270.398C270.326 166.833 270.268 166.612 270.227 166.336C270.185 166.055 270.164 165.794 270.164 165.555ZM270.414 161.875L270.43 162.891H268.969C268.557 162.891 268.19 162.924 267.867 162.992C267.544 163.055 267.273 163.151 267.055 163.281C266.836 163.411 266.669 163.576 266.555 163.773C266.44 163.966 266.383 164.193 266.383 164.453C266.383 164.719 266.443 164.961 266.562 165.18C266.682 165.398 266.862 165.573 267.102 165.703C267.346 165.828 267.646 165.891 268 165.891C268.443 165.891 268.833 165.797 269.172 165.609C269.51 165.422 269.779 165.193 269.977 164.922C270.18 164.651 270.289 164.388 270.305 164.133L270.922 164.828C270.885 165.047 270.786 165.289 270.625 165.555C270.464 165.82 270.247 166.076 269.977 166.32C269.711 166.56 269.393 166.76 269.023 166.922C268.659 167.078 268.247 167.156 267.789 167.156C267.216 167.156 266.714 167.044 266.281 166.82C265.854 166.596 265.521 166.297 265.281 165.922C265.047 165.542 264.93 165.117 264.93 164.648C264.93 164.195 265.018 163.797 265.195 163.453C265.372 163.104 265.628 162.815 265.961 162.586C266.294 162.352 266.695 162.174 267.164 162.055C267.633 161.935 268.156 161.875 268.734 161.875H270.414ZM282.773 164.758C282.773 164.549 282.727 164.357 282.633 164.18C282.544 163.997 282.359 163.833 282.078 163.688C281.802 163.536 281.385 163.406 280.828 163.297C280.359 163.198 279.935 163.081 279.555 162.945C279.18 162.81 278.859 162.646 278.594 162.453C278.333 162.26 278.133 162.034 277.992 161.773C277.852 161.513 277.781 161.208 277.781 160.859C277.781 160.526 277.854 160.211 278 159.914C278.151 159.617 278.362 159.354 278.633 159.125C278.909 158.896 279.24 158.716 279.625 158.586C280.01 158.456 280.44 158.391 280.914 158.391C281.591 158.391 282.169 158.51 282.648 158.75C283.128 158.99 283.495 159.31 283.75 159.711C284.005 160.107 284.133 160.547 284.133 161.031H282.688C282.688 160.797 282.617 160.57 282.477 160.352C282.341 160.128 282.141 159.943 281.875 159.797C281.615 159.651 281.294 159.578 280.914 159.578C280.513 159.578 280.188 159.641 279.938 159.766C279.693 159.885 279.513 160.039 279.398 160.227C279.289 160.414 279.234 160.612 279.234 160.82C279.234 160.977 279.26 161.117 279.312 161.242C279.37 161.362 279.469 161.474 279.609 161.578C279.75 161.677 279.948 161.771 280.203 161.859C280.458 161.948 280.784 162.036 281.18 162.125C281.872 162.281 282.443 162.469 282.891 162.688C283.339 162.906 283.672 163.174 283.891 163.492C284.109 163.81 284.219 164.195 284.219 164.648C284.219 165.018 284.141 165.357 283.984 165.664C283.833 165.971 283.612 166.237 283.32 166.461C283.034 166.68 282.69 166.852 282.289 166.977C281.893 167.096 281.448 167.156 280.953 167.156C280.208 167.156 279.578 167.023 279.062 166.758C278.547 166.492 278.156 166.148 277.891 165.727C277.625 165.305 277.492 164.859 277.492 164.391H278.945C278.966 164.786 279.081 165.102 279.289 165.336C279.497 165.565 279.753 165.729 280.055 165.828C280.357 165.922 280.656 165.969 280.953 165.969C281.349 165.969 281.68 165.917 281.945 165.812C282.216 165.708 282.422 165.565 282.562 165.383C282.703 165.201 282.773 164.992 282.773 164.758ZM291.438 170.25V160.172L291.562 158.547H292.891V170.25H291.438ZM285.758 162.867V162.703C285.758 162.057 285.833 161.471 285.984 160.945C286.135 160.414 286.357 159.958 286.648 159.578C286.94 159.198 287.292 158.906 287.703 158.703C288.12 158.495 288.594 158.391 289.125 158.391C289.656 158.391 290.122 158.484 290.523 158.672C290.93 158.854 291.273 159.122 291.555 159.477C291.841 159.826 292.068 160.247 292.234 160.742C292.401 161.237 292.516 161.797 292.578 162.422V163.141C292.521 163.76 292.409 164.318 292.242 164.812C292.076 165.307 291.849 165.729 291.562 166.078C291.281 166.427 290.935 166.695 290.523 166.883C290.117 167.065 289.646 167.156 289.109 167.156C288.589 167.156 288.12 167.049 287.703 166.836C287.292 166.622 286.94 166.323 286.648 165.938C286.362 165.552 286.141 165.099 285.984 164.578C285.833 164.052 285.758 163.482 285.758 162.867ZM287.211 162.703V162.867C287.211 163.289 287.255 163.688 287.344 164.062C287.432 164.432 287.568 164.76 287.75 165.047C287.938 165.333 288.172 165.56 288.453 165.727C288.74 165.888 289.078 165.969 289.469 165.969C289.948 165.969 290.346 165.865 290.664 165.656C290.987 165.448 291.245 165.174 291.438 164.836C291.63 164.492 291.779 164.125 291.883 163.734V161.852C291.826 161.565 291.734 161.286 291.609 161.016C291.49 160.745 291.333 160.503 291.141 160.289C290.948 160.07 290.714 159.898 290.438 159.773C290.167 159.643 289.849 159.578 289.484 159.578C289.089 159.578 288.747 159.661 288.461 159.828C288.174 159.995 287.938 160.224 287.75 160.516C287.568 160.802 287.432 161.133 287.344 161.508C287.255 161.883 287.211 162.281 287.211 162.703ZM300.383 165.047V158.547H301.836V167H300.453L300.383 165.047ZM300.656 163.266L301.258 163.25C301.258 163.812 301.198 164.333 301.078 164.812C300.964 165.286 300.776 165.698 300.516 166.047C300.255 166.396 299.914 166.669 299.492 166.867C299.07 167.06 298.557 167.156 297.953 167.156C297.542 167.156 297.164 167.096 296.82 166.977C296.482 166.857 296.19 166.672 295.945 166.422C295.701 166.172 295.51 165.846 295.375 165.445C295.245 165.044 295.18 164.562 295.18 164V158.547H296.625V164.016C296.625 164.396 296.667 164.711 296.75 164.961C296.839 165.206 296.956 165.401 297.102 165.547C297.253 165.688 297.419 165.786 297.602 165.844C297.789 165.901 297.982 165.93 298.18 165.93C298.794 165.93 299.281 165.812 299.641 165.578C300 165.339 300.258 165.018 300.414 164.617C300.576 164.211 300.656 163.76 300.656 163.266ZM309.023 165.555V161.203C309.023 160.87 308.956 160.581 308.82 160.336C308.69 160.086 308.492 159.893 308.227 159.758C307.961 159.622 307.633 159.555 307.242 159.555C306.878 159.555 306.557 159.617 306.281 159.742C306.01 159.867 305.797 160.031 305.641 160.234C305.49 160.438 305.414 160.656 305.414 160.891H303.969C303.969 160.589 304.047 160.289 304.203 159.992C304.359 159.695 304.583 159.427 304.875 159.188C305.172 158.943 305.526 158.75 305.938 158.609C306.354 158.464 306.818 158.391 307.328 158.391C307.943 158.391 308.484 158.495 308.953 158.703C309.427 158.911 309.797 159.227 310.062 159.648C310.333 160.065 310.469 160.589 310.469 161.219V165.156C310.469 165.438 310.492 165.737 310.539 166.055C310.591 166.372 310.667 166.646 310.766 166.875V167H309.258C309.185 166.833 309.128 166.612 309.086 166.336C309.044 166.055 309.023 165.794 309.023 165.555ZM309.273 161.875L309.289 162.891H307.828C307.417 162.891 307.049 162.924 306.727 162.992C306.404 163.055 306.133 163.151 305.914 163.281C305.695 163.411 305.529 163.576 305.414 163.773C305.299 163.966 305.242 164.193 305.242 164.453C305.242 164.719 305.302 164.961 305.422 165.18C305.542 165.398 305.721 165.573 305.961 165.703C306.206 165.828 306.505 165.891 306.859 165.891C307.302 165.891 307.693 165.797 308.031 165.609C308.37 165.422 308.638 165.193 308.836 164.922C309.039 164.651 309.148 164.388 309.164 164.133L309.781 164.828C309.745 165.047 309.646 165.289 309.484 165.555C309.323 165.82 309.107 166.076 308.836 166.32C308.57 166.56 308.253 166.76 307.883 166.922C307.518 167.078 307.107 167.156 306.648 167.156C306.076 167.156 305.573 167.044 305.141 166.82C304.714 166.596 304.38 166.297 304.141 165.922C303.906 165.542 303.789 165.117 303.789 164.648C303.789 164.195 303.878 163.797 304.055 163.453C304.232 163.104 304.487 162.815 304.82 162.586C305.154 162.352 305.555 162.174 306.023 162.055C306.492 161.935 307.016 161.875 307.594 161.875H309.273ZM318.07 165.359V155H319.523V167H318.195L318.07 165.359ZM312.383 162.867V162.703C312.383 162.057 312.461 161.471 312.617 160.945C312.779 160.414 313.005 159.958 313.297 159.578C313.594 159.198 313.945 158.906 314.352 158.703C314.763 158.495 315.221 158.391 315.727 158.391C316.258 158.391 316.721 158.484 317.117 158.672C317.518 158.854 317.857 159.122 318.133 159.477C318.414 159.826 318.635 160.247 318.797 160.742C318.958 161.237 319.07 161.797 319.133 162.422V163.141C319.076 163.76 318.964 164.318 318.797 164.812C318.635 165.307 318.414 165.729 318.133 166.078C317.857 166.427 317.518 166.695 317.117 166.883C316.716 167.065 316.247 167.156 315.711 167.156C315.216 167.156 314.763 167.049 314.352 166.836C313.945 166.622 313.594 166.323 313.297 165.938C313.005 165.552 312.779 165.099 312.617 164.578C312.461 164.052 312.383 163.482 312.383 162.867ZM313.836 162.703V162.867C313.836 163.289 313.878 163.685 313.961 164.055C314.049 164.424 314.185 164.75 314.367 165.031C314.549 165.312 314.781 165.534 315.062 165.695C315.344 165.852 315.68 165.93 316.07 165.93C316.549 165.93 316.943 165.828 317.25 165.625C317.562 165.422 317.812 165.154 318 164.82C318.188 164.487 318.333 164.125 318.438 163.734V161.852C318.375 161.565 318.284 161.289 318.164 161.023C318.049 160.753 317.898 160.513 317.711 160.305C317.529 160.091 317.302 159.922 317.031 159.797C316.766 159.672 316.451 159.609 316.086 159.609C315.69 159.609 315.349 159.693 315.062 159.859C314.781 160.021 314.549 160.245 314.367 160.531C314.185 160.812 314.049 161.141 313.961 161.516C313.878 161.885 313.836 162.281 313.836 162.703ZM327.188 160.172V170.25H325.734V158.547H327.062L327.188 160.172ZM332.883 162.703V162.867C332.883 163.482 332.81 164.052 332.664 164.578C332.518 165.099 332.305 165.552 332.023 165.938C331.747 166.323 331.406 166.622 331 166.836C330.594 167.049 330.128 167.156 329.602 167.156C329.065 167.156 328.591 167.068 328.18 166.891C327.768 166.714 327.419 166.456 327.133 166.117C326.846 165.779 326.617 165.372 326.445 164.898C326.279 164.424 326.164 163.891 326.102 163.297V162.422C326.164 161.797 326.281 161.237 326.453 160.742C326.625 160.247 326.852 159.826 327.133 159.477C327.419 159.122 327.766 158.854 328.172 158.672C328.578 158.484 329.047 158.391 329.578 158.391C330.109 158.391 330.581 158.495 330.992 158.703C331.404 158.906 331.75 159.198 332.031 159.578C332.312 159.958 332.523 160.414 332.664 160.945C332.81 161.471 332.883 162.057 332.883 162.703ZM331.43 162.867V162.703C331.43 162.281 331.385 161.885 331.297 161.516C331.208 161.141 331.07 160.812 330.883 160.531C330.701 160.245 330.466 160.021 330.18 159.859C329.893 159.693 329.552 159.609 329.156 159.609C328.792 159.609 328.474 159.672 328.203 159.797C327.938 159.922 327.711 160.091 327.523 160.305C327.336 160.513 327.182 160.753 327.062 161.023C326.948 161.289 326.862 161.565 326.805 161.852V163.875C326.909 164.24 327.055 164.583 327.242 164.906C327.43 165.224 327.68 165.482 327.992 165.68C328.305 165.872 328.698 165.969 329.172 165.969C329.562 165.969 329.898 165.888 330.18 165.727C330.466 165.56 330.701 165.333 330.883 165.047C331.07 164.76 331.208 164.432 331.297 164.062C331.385 163.688 331.43 163.289 331.43 162.867ZM339.711 165.555V161.203C339.711 160.87 339.643 160.581 339.508 160.336C339.378 160.086 339.18 159.893 338.914 159.758C338.648 159.622 338.32 159.555 337.93 159.555C337.565 159.555 337.245 159.617 336.969 159.742C336.698 159.867 336.484 160.031 336.328 160.234C336.177 160.438 336.102 160.656 336.102 160.891H334.656C334.656 160.589 334.734 160.289 334.891 159.992C335.047 159.695 335.271 159.427 335.562 159.188C335.859 158.943 336.214 158.75 336.625 158.609C337.042 158.464 337.505 158.391 338.016 158.391C338.63 158.391 339.172 158.495 339.641 158.703C340.115 158.911 340.484 159.227 340.75 159.648C341.021 160.065 341.156 160.589 341.156 161.219V165.156C341.156 165.438 341.18 165.737 341.227 166.055C341.279 166.372 341.354 166.646 341.453 166.875V167H339.945C339.872 166.833 339.815 166.612 339.773 166.336C339.732 166.055 339.711 165.794 339.711 165.555ZM339.961 161.875L339.977 162.891H338.516C338.104 162.891 337.737 162.924 337.414 162.992C337.091 163.055 336.82 163.151 336.602 163.281C336.383 163.411 336.216 163.576 336.102 163.773C335.987 163.966 335.93 164.193 335.93 164.453C335.93 164.719 335.99 164.961 336.109 165.18C336.229 165.398 336.409 165.573 336.648 165.703C336.893 165.828 337.193 165.891 337.547 165.891C337.99 165.891 338.38 165.797 338.719 165.609C339.057 165.422 339.326 165.193 339.523 164.922C339.727 164.651 339.836 164.388 339.852 164.133L340.469 164.828C340.432 165.047 340.333 165.289 340.172 165.555C340.01 165.82 339.794 166.076 339.523 166.32C339.258 166.56 338.94 166.76 338.57 166.922C338.206 167.078 337.794 167.156 337.336 167.156C336.763 167.156 336.26 167.044 335.828 166.82C335.401 166.596 335.068 166.297 334.828 165.922C334.594 165.542 334.477 165.117 334.477 164.648C334.477 164.195 334.565 163.797 334.742 163.453C334.919 163.104 335.174 162.815 335.508 162.586C335.841 162.352 336.242 162.174 336.711 162.055C337.18 161.935 337.703 161.875 338.281 161.875H339.961ZM344.875 159.875V167H343.43V158.547H344.836L344.875 159.875ZM347.516 158.5L347.508 159.844C347.388 159.818 347.273 159.802 347.164 159.797C347.06 159.786 346.94 159.781 346.805 159.781C346.471 159.781 346.177 159.833 345.922 159.938C345.667 160.042 345.451 160.188 345.273 160.375C345.096 160.562 344.956 160.786 344.852 161.047C344.753 161.302 344.688 161.583 344.656 161.891L344.25 162.125C344.25 161.615 344.299 161.135 344.398 160.688C344.503 160.24 344.661 159.844 344.875 159.5C345.089 159.151 345.359 158.88 345.688 158.688C346.021 158.49 346.417 158.391 346.875 158.391C346.979 158.391 347.099 158.404 347.234 158.43C347.37 158.451 347.464 158.474 347.516 158.5ZM353.523 165.555V161.203C353.523 160.87 353.456 160.581 353.32 160.336C353.19 160.086 352.992 159.893 352.727 159.758C352.461 159.622 352.133 159.555 351.742 159.555C351.378 159.555 351.057 159.617 350.781 159.742C350.51 159.867 350.297 160.031 350.141 160.234C349.99 160.438 349.914 160.656 349.914 160.891H348.469C348.469 160.589 348.547 160.289 348.703 159.992C348.859 159.695 349.083 159.427 349.375 159.188C349.672 158.943 350.026 158.75 350.438 158.609C350.854 158.464 351.318 158.391 351.828 158.391C352.443 158.391 352.984 158.495 353.453 158.703C353.927 158.911 354.297 159.227 354.562 159.648C354.833 160.065 354.969 160.589 354.969 161.219V165.156C354.969 165.438 354.992 165.737 355.039 166.055C355.091 166.372 355.167 166.646 355.266 166.875V167H353.758C353.685 166.833 353.628 166.612 353.586 166.336C353.544 166.055 353.523 165.794 353.523 165.555ZM353.773 161.875L353.789 162.891H352.328C351.917 162.891 351.549 162.924 351.227 162.992C350.904 163.055 350.633 163.151 350.414 163.281C350.195 163.411 350.029 163.576 349.914 163.773C349.799 163.966 349.742 164.193 349.742 164.453C349.742 164.719 349.802 164.961 349.922 165.18C350.042 165.398 350.221 165.573 350.461 165.703C350.706 165.828 351.005 165.891 351.359 165.891C351.802 165.891 352.193 165.797 352.531 165.609C352.87 165.422 353.138 165.193 353.336 164.922C353.539 164.651 353.648 164.388 353.664 164.133L354.281 164.828C354.245 165.047 354.146 165.289 353.984 165.555C353.823 165.82 353.607 166.076 353.336 166.32C353.07 166.56 352.753 166.76 352.383 166.922C352.018 167.078 351.607 167.156 351.148 167.156C350.576 167.156 350.073 167.044 349.641 166.82C349.214 166.596 348.88 166.297 348.641 165.922C348.406 165.542 348.289 165.117 348.289 164.648C348.289 164.195 348.378 163.797 348.555 163.453C348.732 163.104 348.987 162.815 349.32 162.586C349.654 162.352 350.055 162.174 350.523 162.055C350.992 161.935 351.516 161.875 352.094 161.875H353.773ZM364.594 165.969C364.938 165.969 365.255 165.898 365.547 165.758C365.839 165.617 366.078 165.424 366.266 165.18C366.453 164.93 366.56 164.646 366.586 164.328H367.961C367.935 164.828 367.766 165.294 367.453 165.727C367.146 166.154 366.742 166.5 366.242 166.766C365.742 167.026 365.193 167.156 364.594 167.156C363.958 167.156 363.404 167.044 362.93 166.82C362.461 166.596 362.07 166.289 361.758 165.898C361.451 165.508 361.219 165.06 361.062 164.555C360.911 164.044 360.836 163.505 360.836 162.938V162.609C360.836 162.042 360.911 161.505 361.062 161C361.219 160.49 361.451 160.039 361.758 159.648C362.07 159.258 362.461 158.951 362.93 158.727C363.404 158.503 363.958 158.391 364.594 158.391C365.255 158.391 365.833 158.526 366.328 158.797C366.823 159.062 367.211 159.427 367.492 159.891C367.779 160.349 367.935 160.87 367.961 161.453H366.586C366.56 161.104 366.461 160.789 366.289 160.508C366.122 160.227 365.893 160.003 365.602 159.836C365.315 159.664 364.979 159.578 364.594 159.578C364.151 159.578 363.779 159.667 363.477 159.844C363.18 160.016 362.943 160.25 362.766 160.547C362.594 160.839 362.469 161.164 362.391 161.523C362.318 161.878 362.281 162.24 362.281 162.609V162.938C362.281 163.307 362.318 163.672 362.391 164.031C362.464 164.391 362.586 164.716 362.758 165.008C362.935 165.299 363.172 165.534 363.469 165.711C363.771 165.883 364.146 165.969 364.594 165.969ZM369.203 162.867V162.688C369.203 162.078 369.292 161.513 369.469 160.992C369.646 160.466 369.901 160.01 370.234 159.625C370.568 159.234 370.971 158.932 371.445 158.719C371.919 158.5 372.451 158.391 373.039 158.391C373.633 158.391 374.167 158.5 374.641 158.719C375.12 158.932 375.526 159.234 375.859 159.625C376.198 160.01 376.456 160.466 376.633 160.992C376.81 161.513 376.898 162.078 376.898 162.688V162.867C376.898 163.477 376.81 164.042 376.633 164.562C376.456 165.083 376.198 165.539 375.859 165.93C375.526 166.315 375.122 166.617 374.648 166.836C374.18 167.049 373.648 167.156 373.055 167.156C372.461 167.156 371.927 167.049 371.453 166.836C370.979 166.617 370.573 166.315 370.234 165.93C369.901 165.539 369.646 165.083 369.469 164.562C369.292 164.042 369.203 163.477 369.203 162.867ZM370.648 162.688V162.867C370.648 163.289 370.698 163.688 370.797 164.062C370.896 164.432 371.044 164.76 371.242 165.047C371.445 165.333 371.698 165.56 372 165.727C372.302 165.888 372.654 165.969 373.055 165.969C373.451 165.969 373.797 165.888 374.094 165.727C374.396 165.56 374.646 165.333 374.844 165.047C375.042 164.76 375.19 164.432 375.289 164.062C375.393 163.688 375.445 163.289 375.445 162.867V162.688C375.445 162.271 375.393 161.878 375.289 161.508C375.19 161.133 375.039 160.802 374.836 160.516C374.638 160.224 374.388 159.995 374.086 159.828C373.789 159.661 373.44 159.578 373.039 159.578C372.643 159.578 372.294 159.661 371.992 159.828C371.695 159.995 371.445 160.224 371.242 160.516C371.044 160.802 370.896 161.133 370.797 161.508C370.698 161.878 370.648 162.271 370.648 162.688ZM380.148 160.227V167H378.695V158.547H380.07L380.148 160.227ZM379.852 162.453L379.18 162.43C379.185 161.852 379.26 161.318 379.406 160.828C379.552 160.333 379.768 159.904 380.055 159.539C380.341 159.174 380.698 158.893 381.125 158.695C381.552 158.492 382.047 158.391 382.609 158.391C383.005 158.391 383.37 158.448 383.703 158.562C384.036 158.672 384.326 158.846 384.57 159.086C384.815 159.326 385.005 159.633 385.141 160.008C385.276 160.383 385.344 160.836 385.344 161.367V167H383.898V161.438C383.898 160.995 383.823 160.641 383.672 160.375C383.526 160.109 383.318 159.917 383.047 159.797C382.776 159.672 382.458 159.609 382.094 159.609C381.667 159.609 381.31 159.685 381.023 159.836C380.737 159.987 380.508 160.195 380.336 160.461C380.164 160.727 380.039 161.031 379.961 161.375C379.888 161.714 379.852 162.073 379.852 162.453ZM385.328 161.656L384.359 161.953C384.365 161.49 384.44 161.044 384.586 160.617C384.737 160.19 384.953 159.81 385.234 159.477C385.521 159.143 385.872 158.88 386.289 158.688C386.706 158.49 387.182 158.391 387.719 158.391C388.172 158.391 388.573 158.451 388.922 158.57C389.276 158.69 389.573 158.875 389.812 159.125C390.057 159.37 390.242 159.685 390.367 160.07C390.492 160.456 390.555 160.914 390.555 161.445V167H389.102V161.43C389.102 160.956 389.026 160.589 388.875 160.328C388.729 160.062 388.521 159.878 388.25 159.773C387.984 159.664 387.667 159.609 387.297 159.609C386.979 159.609 386.698 159.664 386.453 159.773C386.208 159.883 386.003 160.034 385.836 160.227C385.669 160.414 385.542 160.63 385.453 160.875C385.37 161.12 385.328 161.38 385.328 161.656ZM396.25 167.156C395.661 167.156 395.128 167.057 394.648 166.859C394.174 166.656 393.766 166.372 393.422 166.008C393.083 165.643 392.823 165.211 392.641 164.711C392.458 164.211 392.367 163.664 392.367 163.07V162.742C392.367 162.055 392.469 161.443 392.672 160.906C392.875 160.365 393.151 159.906 393.5 159.531C393.849 159.156 394.245 158.872 394.688 158.68C395.13 158.487 395.589 158.391 396.062 158.391C396.667 158.391 397.188 158.495 397.625 158.703C398.068 158.911 398.43 159.203 398.711 159.578C398.992 159.948 399.201 160.385 399.336 160.891C399.471 161.391 399.539 161.938 399.539 162.531V163.18H393.227V162H398.094V161.891C398.073 161.516 397.995 161.151 397.859 160.797C397.729 160.443 397.521 160.151 397.234 159.922C396.948 159.693 396.557 159.578 396.062 159.578C395.734 159.578 395.432 159.648 395.156 159.789C394.88 159.924 394.643 160.128 394.445 160.398C394.247 160.669 394.094 161 393.984 161.391C393.875 161.781 393.82 162.232 393.82 162.742V163.07C393.82 163.471 393.875 163.849 393.984 164.203C394.099 164.552 394.263 164.859 394.477 165.125C394.695 165.391 394.958 165.599 395.266 165.75C395.578 165.901 395.932 165.977 396.328 165.977C396.839 165.977 397.271 165.872 397.625 165.664C397.979 165.456 398.289 165.177 398.555 164.828L399.43 165.523C399.247 165.799 399.016 166.062 398.734 166.312C398.453 166.562 398.107 166.766 397.695 166.922C397.289 167.078 396.807 167.156 396.25 167.156ZM404.609 165.969C404.953 165.969 405.271 165.898 405.562 165.758C405.854 165.617 406.094 165.424 406.281 165.18C406.469 164.93 406.576 164.646 406.602 164.328H407.977C407.951 164.828 407.781 165.294 407.469 165.727C407.161 166.154 406.758 166.5 406.258 166.766C405.758 167.026 405.208 167.156 404.609 167.156C403.974 167.156 403.419 167.044 402.945 166.82C402.477 166.596 402.086 166.289 401.773 165.898C401.466 165.508 401.234 165.06 401.078 164.555C400.927 164.044 400.852 163.505 400.852 162.938V162.609C400.852 162.042 400.927 161.505 401.078 161C401.234 160.49 401.466 160.039 401.773 159.648C402.086 159.258 402.477 158.951 402.945 158.727C403.419 158.503 403.974 158.391 404.609 158.391C405.271 158.391 405.849 158.526 406.344 158.797C406.839 159.062 407.227 159.427 407.508 159.891C407.794 160.349 407.951 160.87 407.977 161.453H406.602C406.576 161.104 406.477 160.789 406.305 160.508C406.138 160.227 405.909 160.003 405.617 159.836C405.331 159.664 404.995 159.578 404.609 159.578C404.167 159.578 403.794 159.667 403.492 159.844C403.195 160.016 402.958 160.25 402.781 160.547C402.609 160.839 402.484 161.164 402.406 161.523C402.333 161.878 402.297 162.24 402.297 162.609V162.938C402.297 163.307 402.333 163.672 402.406 164.031C402.479 164.391 402.602 164.716 402.773 165.008C402.951 165.299 403.188 165.534 403.484 165.711C403.786 165.883 404.161 165.969 404.609 165.969ZM403.812 167.078H404.852L404.758 167.492C405.06 167.544 405.333 167.669 405.578 167.867C405.828 168.065 405.953 168.391 405.953 168.844C405.953 169.089 405.901 169.31 405.797 169.508C405.698 169.711 405.549 169.883 405.352 170.023C405.154 170.169 404.906 170.281 404.609 170.359C404.318 170.438 403.977 170.477 403.586 170.477L403.531 169.641C403.771 169.641 403.987 169.615 404.18 169.562C404.378 169.51 404.534 169.427 404.648 169.312C404.768 169.198 404.828 169.049 404.828 168.867C404.828 168.695 404.784 168.56 404.695 168.461C404.607 168.362 404.469 168.286 404.281 168.234C404.099 168.188 403.862 168.154 403.57 168.133L403.812 167.078ZM414.586 165.555V161.203C414.586 160.87 414.518 160.581 414.383 160.336C414.253 160.086 414.055 159.893 413.789 159.758C413.523 159.622 413.195 159.555 412.805 159.555C412.44 159.555 412.12 159.617 411.844 159.742C411.573 159.867 411.359 160.031 411.203 160.234C411.052 160.438 410.977 160.656 410.977 160.891H409.531C409.531 160.589 409.609 160.289 409.766 159.992C409.922 159.695 410.146 159.427 410.438 159.188C410.734 158.943 411.089 158.75 411.5 158.609C411.917 158.464 412.38 158.391 412.891 158.391C413.505 158.391 414.047 158.495 414.516 158.703C414.99 158.911 415.359 159.227 415.625 159.648C415.896 160.065 416.031 160.589 416.031 161.219V165.156C416.031 165.438 416.055 165.737 416.102 166.055C416.154 166.372 416.229 166.646 416.328 166.875V167H414.82C414.747 166.833 414.69 166.612 414.648 166.336C414.607 166.055 414.586 165.794 414.586 165.555ZM414.836 161.875L414.852 162.891H413.391C412.979 162.891 412.612 162.924 412.289 162.992C411.966 163.055 411.695 163.151 411.477 163.281C411.258 163.411 411.091 163.576 410.977 163.773C410.862 163.966 410.805 164.193 410.805 164.453C410.805 164.719 410.865 164.961 410.984 165.18C411.104 165.398 411.284 165.573 411.523 165.703C411.768 165.828 412.068 165.891 412.422 165.891C412.865 165.891 413.255 165.797 413.594 165.609C413.932 165.422 414.201 165.193 414.398 164.922C414.602 164.651 414.711 164.388 414.727 164.133L415.344 164.828C415.307 165.047 415.208 165.289 415.047 165.555C414.885 165.82 414.669 166.076 414.398 166.32C414.133 166.56 413.815 166.76 413.445 166.922C413.081 167.078 412.669 167.156 412.211 167.156C411.638 167.156 411.135 167.044 410.703 166.82C410.276 166.596 409.943 166.297 409.703 165.922C409.469 165.542 409.352 165.117 409.352 164.648C409.352 164.195 409.44 163.797 409.617 163.453C409.794 163.104 410.049 162.815 410.383 162.586C410.716 162.352 411.117 162.174 411.586 162.055C412.055 161.935 412.578 161.875 413.156 161.875H414.836ZM419.75 159.875V167H418.305V158.547H419.711L419.75 159.875ZM422.391 158.5L422.383 159.844C422.263 159.818 422.148 159.802 422.039 159.797C421.935 159.786 421.815 159.781 421.68 159.781C421.346 159.781 421.052 159.833 420.797 159.938C420.542 160.042 420.326 160.188 420.148 160.375C419.971 160.562 419.831 160.786 419.727 161.047C419.628 161.302 419.562 161.583 419.531 161.891L419.125 162.125C419.125 161.615 419.174 161.135 419.273 160.688C419.378 160.24 419.536 159.844 419.75 159.5C419.964 159.151 420.234 158.88 420.562 158.688C420.896 158.49 421.292 158.391 421.75 158.391C421.854 158.391 421.974 158.404 422.109 158.43C422.245 158.451 422.339 158.474 422.391 158.5ZM422.781 166.234C422.781 165.99 422.857 165.784 423.008 165.617C423.164 165.445 423.388 165.359 423.68 165.359C423.971 165.359 424.193 165.445 424.344 165.617C424.5 165.784 424.578 165.99 424.578 166.234C424.578 166.474 424.5 166.677 424.344 166.844C424.193 167.01 423.971 167.094 423.68 167.094C423.388 167.094 423.164 167.01 423.008 166.844C422.857 166.677 422.781 166.474 422.781 166.234Z" fill="#ACB5BD"/>
</g>
<defs>
<filter id="filter0_i_9555_6402" x="149" y="0" width="128" height="128" filterUnits="userSpaceOnUse" color-interpolation-filters="sRGB">
<feFlood flood-opacity="0" result="BackgroundImageFix"/>
<feBlend mode="normal" in="SourceGraphic" in2="BackgroundImageFix" result="shape"/>
<feColorMatrix in="SourceAlpha" type="matrix" values="0 0 0 0 0 0 0 0 0 0 0 0 0 0 0 0 0 0 127 0" result="hardAlpha"/>
<feOffset dx="-6" dy="-6"/>
<feComposite in2="hardAlpha" operator="arithmetic" k2="-1" k3="1"/>
<feColorMatrix type="matrix" values="0 0 0 0 0 0 0 0 0 0 0 0 0 0 0 0 0 0 0.04 0"/>
<feBlend mode="normal" in2="shape" result="effect1_innerShadow_9555_6402"/>
</filter>
<filter id="filter1_f_9555_6402" x="158" y="56" width="47" height="36" filterUnits="userSpaceOnUse" color-interpolation-filters="sRGB">
<feFlood flood-opacity="0" result="BackgroundImageFix"/>
<feBlend mode="normal" in="SourceGraphic" in2="BackgroundImageFix" result="shape"/>
<feGaussianBlur stdDeviation="5" result="effect1_foregroundBlur_9555_6402"/>
</filter>
<filter id="filter2_f_9555_6402" x="220" y="56" width="47" height="36" filterUnits="userSpaceOnUse" color-interpolation-filters="sRGB">
<feFlood flood-opacity="0" result="BackgroundImageFix"/>
<feBlend mode="normal" in="SourceGraphic" in2="BackgroundImageFix" result="shape"/>
<feGaussianBlur stdDeviation="5" result="effect1_foregroundBlur_9555_6402"/>
</filter>
<clipPath id="clip0_9555_6402">
<rect width="426" height="171" fill="white"/>
</clipPath>
<clipPath id="clip1_9555_6402">
<rect width="87.4601" height="29.9649" fill="white" transform="translate(169 38)"/>
</clipPath>
</defs>
</svg>
